<!DOCTYPE svg PUBLIC "-//W3C//DTD SVG 1.1//EN" "http://www.w3.org/Graphics/SVG/1.1/DTD/svg11.dtd">
<!-- Uploaded to: SVG Repo, www.svgrepo.com, Transformed by: SVG Repo Mixer Tools -->
<svg version="1.1" id="Icons" xmlns="http://www.w3.org/2000/svg" xmlns:xlink="http://www.w3.org/1999/xlink" viewBox="0 0 32 32" xml:space="preserve" width="800px" height="800px" fill="#000000">
<g id="SVGRepo_bgCarrier" stroke-width="0"/>
<g id="SVGRepo_tracerCarrier" stroke-linecap="round" stroke-linejoin="round"/>
<g id="SVGRepo_iconCarrier"> <style type="text/css"> .st0{fill:none;stroke:#e2e8f0;stroke-width:2;stroke-linecap:round;stroke-linejoin:round;stroke-miterlimit:10;} </style> <path class="st0" d="M8.8,2C5,2,2,5,2,8.7v10.1V23l0,0c3.1-2.7,7.1-4.2,11.3-4.2h4c3.7,0,6.8-3,6.8-6.7V8.7C24,5,21,2,17.2,2H8.8z"/> <path class="st0" d="M14.8,9C11,9,8,12,8,15.7v10.1V30l0,0c3.1-2.7,7.1-4.2,11.3-4.2h4c3.7,0,6.8-3,6.8-6.7v-3.4C30,12,27,9,23.2,9 H14.8z"/> </g>
</svg>